<svg width="44" height="44" viewBox="0 0 44 44" fill="none" xmlns="http://www.w3.org/2000/svg">
<g filter="url(#filter0_d_0_640)">
<rect x="2" y="1" width="40" height="40" rx="20" fill="#1170CA"/>
<path d="M22 14C22.4142 14 22.75 14.3358 22.75 14.75V20.25H28.25C28.6642 20.25 29 20.5858 29 21C29 21.4142 28.6642 21.75 28.25 21.75H22.75V27.25C22.75 27.6642 22.4142 28 22 28C21.5858 28 21.25 27.6642 21.25 27.25V21.75H15.75C15.3358 21.75 15 21.4142 15 21C15 20.5858 15.3358 20.25 15.75 20.25H21.25V14.75C21.25 14.3358 21.5858 14 22 14Z" fill="white"/>
</g>
<defs>
<filter id="filter0_d_0_640" x="0" y="0" width="44" height="44" filterUnits="userSpaceOnUse" color-interpolation-filters="sRGB">
<feFlood flood-opacity="0" result="BackgroundImageFix"/>
<feColorMatrix in="SourceAlpha" type="matrix" values="0 0 0 0 0 0 0 0 0 0 0 0 0 0 0 0 0 0 127 0" result="hardAlpha"/>
<feOffset dy="1"/>
<feGaussianBlur stdDeviation="1"/>
<feColorMatrix type="matrix" values="0 0 0 0 0.164706 0 0 0 0 0.211765 0 0 0 0 0.278431 0 0 0 0.05 0"/>
<feBlend mode="normal" in2="BackgroundImageFix" result="effect1_dropShadow_0_640"/>
<feBlend mode="normal" in="SourceGraphic" in2="effect1_dropShadow_0_640" result="shape"/>
</filter>
</defs>
</svg>
