<svg width="36" height="36" viewBox="0 0 36 36" fill="none" xmlns="http://www.w3.org/2000/svg">
<g filter="url(#filter0_d_0_479)">
<rect x="2" y="1" width="32" height="32" rx="6" fill="white"/>
<rect x="2.5" y="1.5" width="31" height="31" rx="5.5" stroke="#CED4DA"/>
<path d="M15.8777 21.7347L21.3779 16.2346L18.7654 13.6221L13.2653 19.1223C13.1896 19.1981 13.1358 19.293 13.1096 19.3969L12.5 22.5L15.6025 21.8904C15.7067 21.8643 15.802 21.8105 15.8777 21.7347ZM23.1534 14.459C23.3753 14.2371 23.5 13.936 23.5 13.6221C23.5 13.3083 23.3753 13.0072 23.1534 12.7853L22.2147 11.8466C21.9928 11.6247 21.6917 11.5 21.3779 11.5C21.064 11.5 20.7629 11.6247 20.541 11.8466L19.6023 12.7853L22.2147 15.3977L23.1534 14.459Z" fill="#656E7A"/>
</g>
<defs>
<filter id="filter0_d_0_479" x="0" y="0" width="36" height="36" filterUnits="userSpaceOnUse" color-interpolation-filters="sRGB">
<feFlood flood-opacity="0" result="BackgroundImageFix"/>
<feColorMatrix in="SourceAlpha" type="matrix" values="0 0 0 0 0 0 0 0 0 0 0 0 0 0 0 0 0 0 127 0" result="hardAlpha"/>
<feOffset dy="1"/>
<feGaussianBlur stdDeviation="1"/>
<feComposite in2="hardAlpha" operator="out"/>
<feColorMatrix type="matrix" values="0 0 0 0 0.0627451 0 0 0 0 0.0941176 0 0 0 0 0.156863 0 0 0 0.05 0"/>
<feBlend mode="normal" in2="BackgroundImageFix" result="effect1_dropShadow_0_479"/>
<feBlend mode="normal" in="SourceGraphic" in2="effect1_dropShadow_0_479" result="shape"/>
</filter>
</defs>
</svg>
