<svg width="44" height="44" viewBox="0 0 44 44" fill="none" xmlns="http://www.w3.org/2000/svg">
<g filter="url(#filter0_d_0_638)">
<rect x="2" y="1" width="40" height="40" rx="20" fill="white"/>
<rect x="2.5" y="1.5" width="39" height="39" rx="19.5" stroke="#C8CCD2"/>
<path d="M28.4 17H27.4328C27.5501 16.611 27.6065 16.2062 27.6 15.8C27.6 14.256 26.344 13 24.8 13C23.5024 13 22.636 14.1856 22.0768 15.468C21.5256 14.256 20.6152 13 19.2 13C17.656 13 16.4 14.256 16.4 15.8C16.4 16.2768 16.4632 16.6712 16.5672 17H15.6C14.7176 17 14 17.7176 14 18.6V20.2C14 21.0824 14.7176 21.8 15.6 21.8V27.4C15.6 28.2824 16.3176 29 17.2 29H26.8C27.6824 29 28.4 28.2824 28.4 27.4V21.8C29.2824 21.8 30 21.0824 30 20.2V18.6C30 17.7176 29.2824 17 28.4 17ZM24.8 14.6C25.4616 14.6 26 15.1384 26 15.8C26 17 25.4992 17 25.2 17H23.2176C23.6264 15.7392 24.22 14.6 24.8 14.6ZM18 15.8C18 15.1384 18.5384 14.6 19.2 14.6C19.9104 14.6 20.5712 15.82 20.9584 17H18.8C18.5008 17 18 17 18 15.8ZM15.6 18.6H21.2V20.2H15.6V18.6ZM17.2 27.4V21.8H21.2V27.4H17.2ZM26.8 27.4H22.8V21.8H26.8V27.4ZM22.8 20.2V18.668L22.8136 18.6H28.4L28.4008 20.2H22.8Z" fill="#656E7A"/>
</g>
<defs>
<filter id="filter0_d_0_638" x="0" y="0" width="44" height="44" filterUnits="userSpaceOnUse" color-interpolation-filters="sRGB">
<feFlood flood-opacity="0" result="BackgroundImageFix"/>
<feColorMatrix in="SourceAlpha" type="matrix" values="0 0 0 0 0 0 0 0 0 0 0 0 0 0 0 0 0 0 127 0" result="hardAlpha"/>
<feOffset dy="1"/>
<feGaussianBlur stdDeviation="1"/>
<feColorMatrix type="matrix" values="0 0 0 0 0.164706 0 0 0 0 0.211765 0 0 0 0 0.278431 0 0 0 0.05 0"/>
<feBlend mode="normal" in2="BackgroundImageFix" result="effect1_dropShadow_0_638"/>
<feBlend mode="normal" in="SourceGraphic" in2="effect1_dropShadow_0_638" result="shape"/>
</filter>
</defs>
</svg>
