<svg width="44" height="44" viewBox="0 0 44 44" fill="none" xmlns="http://www.w3.org/2000/svg">
<g filter="url(#filter0_d_0_634)">
<rect x="2" y="1" width="40" height="40" rx="20" fill="white"/>
<rect x="2.5" y="1.5" width="39" height="39" rx="19.5" stroke="#C8CCD2"/>
<path d="M29.2 14H14.8C13.8073 14 13 14.7849 13 15.75V26.25C13 27.2151 13.8073 28 14.8 28H29.2C30.1927 28 31 27.2151 31 26.25V15.75C31 14.7849 30.1927 14 29.2 14ZM29.2 15.75V16.1971L22 21.6423L14.8 16.198V15.75H29.2ZM14.8 26.25V18.4135L21.4474 23.4404C21.605 23.5607 21.7996 23.6261 22 23.6261C22.2004 23.6261 22.395 23.5607 22.5526 23.4404L29.2 18.4135L29.2018 26.25H14.8Z" fill="#656E7A"/>
</g>
<defs>
<filter id="filter0_d_0_634" x="0" y="0" width="44" height="44" filterUnits="userSpaceOnUse" color-interpolation-filters="sRGB">
<feFlood flood-opacity="0" result="BackgroundImageFix"/>
<feColorMatrix in="SourceAlpha" type="matrix" values="0 0 0 0 0 0 0 0 0 0 0 0 0 0 0 0 0 0 127 0" result="hardAlpha"/>
<feOffset dy="1"/>
<feGaussianBlur stdDeviation="1"/>
<feColorMatrix type="matrix" values="0 0 0 0 0.164706 0 0 0 0 0.211765 0 0 0 0 0.278431 0 0 0 0.05 0"/>
<feBlend mode="normal" in2="BackgroundImageFix" result="effect1_dropShadow_0_634"/>
<feBlend mode="normal" in="SourceGraphic" in2="effect1_dropShadow_0_634" result="shape"/>
</filter>
</defs>
</svg>
