<svg width="44" height="44" viewBox="0 0 44 44" fill="none" xmlns="http://www.w3.org/2000/svg">
<g filter="url(#filter0_d_0_636)">
<rect x="2" y="1" width="40" height="40" rx="20" fill="white"/>
<rect x="2.5" y="1.5" width="39" height="39" rx="19.5" stroke="#C8CCD2"/>
<path d="M28.3333 21.8481V18.8C28.3333 16.0655 26.5125 13.762 24.0458 13.0693C23.8017 12.442 23.205 12 22.5 12C21.795 12 21.1983 12.442 20.9542 13.0693C18.4875 13.7629 16.6667 16.0655 16.6667 18.8V21.8481L15.2442 23.299C15.1666 23.3778 15.1051 23.4715 15.0632 23.5746C15.0213 23.6778 14.9998 23.7884 15 23.9V25.6C15 25.8254 15.0878 26.0416 15.2441 26.201C15.4004 26.3604 15.6123 26.45 15.8333 26.45H29.1667C29.3877 26.45 29.5996 26.3604 29.7559 26.201C29.9122 26.0416 30 25.8254 30 25.6V23.9C30.0002 23.7884 29.9787 23.6778 29.9368 23.5746C29.8949 23.4715 29.8334 23.3778 29.7558 23.299L28.3333 21.8481ZM28.3333 24.75H16.6667V24.2519L18.0892 22.8009C18.1667 22.7221 18.2282 22.6285 18.2701 22.5253C18.312 22.4222 18.3335 22.3116 18.3333 22.2V18.8C18.3333 16.4565 20.2025 14.55 22.5 14.55C24.7975 14.55 26.6667 16.4565 26.6667 18.8V22.2C26.6667 22.4261 26.7542 22.642 26.9108 22.8009L28.3333 24.2519V24.75ZM22.5 29C23.0161 29.0007 23.5195 28.8373 23.9404 28.5326C24.3613 28.228 24.6786 27.7971 24.8483 27.3H20.1517C20.3214 27.7971 20.6387 28.228 21.0596 28.5326C21.4805 28.8373 21.9839 29.0007 22.5 29Z" fill="#656E7A"/>
</g>
<defs>
<filter id="filter0_d_0_636" x="0" y="0" width="44" height="44" filterUnits="userSpaceOnUse" color-interpolation-filters="sRGB">
<feFlood flood-opacity="0" result="BackgroundImageFix"/>
<feColorMatrix in="SourceAlpha" type="matrix" values="0 0 0 0 0 0 0 0 0 0 0 0 0 0 0 0 0 0 127 0" result="hardAlpha"/>
<feOffset dy="1"/>
<feGaussianBlur stdDeviation="1"/>
<feColorMatrix type="matrix" values="0 0 0 0 0.164706 0 0 0 0 0.211765 0 0 0 0 0.278431 0 0 0 0.05 0"/>
<feBlend mode="normal" in2="BackgroundImageFix" result="effect1_dropShadow_0_636"/>
<feBlend mode="normal" in="SourceGraphic" in2="effect1_dropShadow_0_636" result="shape"/>
</filter>
</defs>
</svg>
