<svg width="34" height="34" viewBox="0 0 34 34" fill="none" xmlns="http://www.w3.org/2000/svg">
<g filter="url(#filter0_d_0_481)">
<rect x="2" y="1" width="30" height="30" rx="6" fill="white"/>
<rect x="2.5" y="1.5" width="29" height="29" rx="5.5" stroke="#CED4DA"/>
<path d="M17 14.375C16.1062 14.375 15.375 15.1062 15.375 16C15.375 16.8938 16.1062 17.625 17 17.625C17.8937 17.625 18.625 16.8938 18.625 16C18.625 15.1062 17.8937 14.375 17 14.375ZM17 9.5C16.1062 9.5 15.375 10.2312 15.375 11.125C15.375 12.0187 16.1062 12.75 17 12.75C17.8937 12.75 18.625 12.0187 18.625 11.125C18.625 10.2312 17.8937 9.5 17 9.5ZM17 19.25C16.1062 19.25 15.375 19.9812 15.375 20.875C15.375 21.7688 16.1062 22.5 17 22.5C17.8937 22.5 18.625 21.7688 18.625 20.875C18.625 19.9812 17.8937 19.25 17 19.25Z" fill="#656E7A"/>
</g>
<defs>
<filter id="filter0_d_0_481" x="0" y="0" width="34" height="34" filterUnits="userSpaceOnUse" color-interpolation-filters="sRGB">
<feFlood flood-opacity="0" result="BackgroundImageFix"/>
<feColorMatrix in="SourceAlpha" type="matrix" values="0 0 0 0 0 0 0 0 0 0 0 0 0 0 0 0 0 0 127 0" result="hardAlpha"/>
<feOffset dy="1"/>
<feGaussianBlur stdDeviation="1"/>
<feComposite in2="hardAlpha" operator="out"/>
<feColorMatrix type="matrix" values="0 0 0 0 0.0627451 0 0 0 0 0.0941176 0 0 0 0 0.156863 0 0 0 0.05 0"/>
<feBlend mode="normal" in2="BackgroundImageFix" result="effect1_dropShadow_0_481"/>
<feBlend mode="normal" in="SourceGraphic" in2="effect1_dropShadow_0_481" result="shape"/>
</filter>
</defs>
</svg>
